# xmcd
#
# Track frame offsets:
#	150
#	15681
#	28446
#	43885
#	60905
#	78160
#	99922
#	117813
#	135357
#	150320
#	165275
#	180780
#
# Disc length: 2647 seconds
# Revision: 0
# Processed by: cddbd v1.5.2PL0 Copyright (c) Steve Scherf et al.
# Submitted via: dBpowerAMP V12.0
#
DISCID=7b0a550c
DTITLE=Alex Louise - Lucky
DYEAR=2014
DGENRE=Pop
TTITLE0=Bad Day
TTITLE1=Undercover
TTITLE2=Just Forget It All
TTITLE3=You Don't See Me
TTITLE4=Kiss
TTITLE5=Into The Night
TTITLE6=Give Me Something
TTITLE7=Water
TTITLE8=Don't Talk About Love
TTITLE9=City Lights
TTITLE10=Lucky
TTITLE11=Call Me
EXTD=
EXTT0=
EXTT1=
EXTT2=
EXTT3=
EXTT4=
EXTT5=
EXTT6=
EXTT7=
EXTT8=
EXTT9=
EXTT10=
EXTT11=
PLAYORDER=
